<svg width="33" height="32" viewBox="0 0 33 32" fill="none" xmlns="http://www.w3.org/2000/svg">
<path d="M24.6001 17.8634V21.3434C24.6001 22.6074 23.8561 23.7354 22.7041 24.2634C21.3041 24.9034 19.1841 25.5994 16.6001 25.5994C14.0161 25.5994 11.8961 24.9034 10.4881 24.2634C9.3441 23.7354 8.6001 22.6074 8.6001 21.3434V17.8634L14.2881 20.4634C15.0161 20.7994 15.8001 20.9674 16.6001 20.9674C17.4001 20.9674 18.1841 20.7994 18.9121 20.4634L24.6001 17.8634ZM27.8001 16.3994V21.5994C27.8001 22.0394 27.4401 22.3994 27.0001 22.3994C26.5601 22.3994 26.2001 22.0394 26.2001 21.5994V17.1354L27.8001 16.3994Z" fill="#FF5723"/>
<path d="M14.9507 19.011C15.4685 19.2475 16.0311 19.3699 16.6003 19.3699C17.1695 19.3699 17.7321 19.2475 18.2499 19.011L28.4667 14.3406C29.0427 14.0774 29.4003 13.5198 29.4003 12.8854C29.4003 12.251 29.0427 11.6926 28.4667 11.4294L18.2499 6.75983C17.7323 6.52298 17.1699 6.40039 16.6007 6.40039C16.0315 6.40039 15.469 6.52298 14.9515 6.75983L4.73389 11.4286C4.15789 11.6926 3.80029 12.2502 3.80029 12.8846C3.80029 13.519 4.15789 14.0766 4.73389 14.3406L14.9507 19.011Z" fill="#FF5723"/>
</svg>
