<svg width="33" height="32" viewBox="0 0 33 32" fill="none" xmlns="http://www.w3.org/2000/svg">
<path d="M11.42 20.76C10.6244 21.3822 9.98099 22.1774 9.53858 23.0853C9.09617 23.9932 8.86639 24.99 8.8667 26V28H4.8667C3.76003 28 2.8667 27.1067 2.8667 26V24.6667C2.8667 22.0867 4.95337 20 7.53337 20H8.8667C9.81337 20 10.6867 20.28 11.42 20.76Z" fill="#FF5723"/>
<path d="M24.2002 20C25.857 20 27.2002 18.6569 27.2002 17C27.2002 15.3431 25.857 14 24.2002 14C22.5433 14 21.2002 15.3431 21.2002 17C21.2002 18.6569 22.5433 20 24.2002 20Z" fill="#FF5723"/>
<path d="M8.2002 20C9.85705 20 11.2002 18.6569 11.2002 17C11.2002 15.3431 9.85705 14 8.2002 14C6.54334 14 5.2002 15.3431 5.2002 17C5.2002 18.6569 6.54334 20 8.2002 20Z" fill="#FF5723"/>
<path d="M29.5333 24.6667V26C29.5333 27.1067 28.64 28 27.5333 28H23.5333V26C23.5333 23.8733 22.5333 21.98 20.98 20.76C21.7133 20.28 22.5866 20 23.5333 20H24.8666C27.4466 20 29.5333 22.0867 29.5333 24.6667Z" fill="#FF5723"/>
<path d="M16.1999 20.6663C18.2249 20.6663 19.8665 19.0247 19.8665 16.9997C19.8665 14.9746 18.2249 13.333 16.1999 13.333C14.1748 13.333 12.5332 14.9746 12.5332 16.9997C12.5332 19.0247 14.1748 20.6663 16.1999 20.6663Z" fill="#FF5723"/>
<path d="M16.8667 20.6665H15.5334C12.5927 20.6665 10.2 23.0592 10.2 25.9998V27.9998C10.2 29.1025 11.0974 29.9998 12.2 29.9998H20.2C21.3027 29.9998 22.2 29.1025 22.2 27.9998V25.9998C22.2 23.0592 19.8074 20.6665 16.8667 20.6665ZM25.8667 11.1225L24.258 11.6945C24.1525 11.732 24.0394 11.7433 23.9286 11.7273C23.8177 11.7112 23.7124 11.6685 23.6218 11.6026C23.5312 11.5368 23.458 11.4498 23.4086 11.3493C23.3591 11.2488 23.3349 11.1378 23.338 11.0258L23.3847 9.31917L22.3434 7.96584C22.2751 7.87703 22.2295 7.77295 22.2105 7.66258C22.1915 7.55222 22.1997 7.43888 22.2342 7.33237C22.2688 7.22585 22.3288 7.12936 22.409 7.05121C22.4893 6.97307 22.5873 6.91562 22.6947 6.88384L24.3327 6.40117L25.298 4.9925C25.3613 4.9001 25.4462 4.82452 25.5453 4.7723C25.6444 4.72008 25.7547 4.69278 25.8667 4.69278C25.9787 4.69278 26.089 4.72008 26.1881 4.7723C26.2872 4.82452 26.3721 4.9001 26.4354 4.9925L27.4007 6.40117L29.0387 6.88384C29.5034 7.0205 29.6854 7.58184 29.39 7.96584L28.3487 9.31917L28.3954 11.0258C28.3983 11.1377 28.374 11.2487 28.3245 11.3491C28.275 11.4495 28.2018 11.5364 28.1113 11.6022C28.0207 11.668 27.9155 11.7108 27.8047 11.7269C27.6939 11.743 27.5809 11.7319 27.4754 11.6945L25.8667 11.1225ZM6.53336 11.1225L4.92469 11.6945C4.81916 11.732 4.70607 11.7433 4.59522 11.7273C4.48437 11.7112 4.37908 11.6685 4.28848 11.6026C4.19788 11.5368 4.12469 11.4498 4.07524 11.3493C4.02579 11.2488 4.00158 11.1378 4.00469 11.0258L4.05136 9.31917L3.01002 7.96584C2.9418 7.87703 2.89621 7.77295 2.8772 7.66258C2.85819 7.55222 2.86633 7.43888 2.90092 7.33237C2.9355 7.22585 2.9955 7.12936 3.07572 7.05121C3.15594 6.97307 3.25397 6.91562 3.36136 6.88384L4.99936 6.40117L5.96469 4.9925C6.028 4.9001 6.11286 4.82452 6.21195 4.7723C6.31103 4.72008 6.42135 4.69278 6.53336 4.69278C6.64536 4.69278 6.75568 4.72008 6.85477 4.7723C6.95385 4.82452 7.03872 4.9001 7.10202 4.9925L8.06736 6.40117L9.70536 6.88384C10.17 7.0205 10.352 7.58184 10.0567 7.96584L9.01536 9.31917L9.06202 11.0258C9.06498 11.1377 9.04066 11.2487 8.99117 11.3491C8.94167 11.4495 8.86849 11.5364 8.77794 11.6022C8.68738 11.668 8.58217 11.7108 8.47138 11.7269C8.36059 11.743 8.24756 11.7319 8.14202 11.6945L6.53336 11.1225ZM16.2 9.6225L14.2927 10.3005C14.1676 10.345 14.0335 10.3583 13.9021 10.3393C13.7707 10.3203 13.6459 10.2696 13.5385 10.1915C13.4311 10.1134 13.3444 10.0104 13.2857 9.89129C13.2271 9.77217 13.1984 9.64055 13.202 9.50784L13.2574 7.4845L12.0227 5.87984C11.9418 5.77455 11.8878 5.65115 11.8653 5.52031C11.8428 5.38947 11.8524 5.25511 11.8934 5.12884C11.9345 5.00257 12.0056 4.88818 12.1007 4.79555C12.1958 4.70292 12.312 4.63484 12.4394 4.59717L14.3814 4.0245L15.526 2.3545C15.6011 2.24492 15.7017 2.15527 15.8192 2.09333C15.9367 2.03139 16.0675 1.99902 16.2004 1.99902C16.3332 1.99902 16.464 2.03139 16.5815 2.09333C16.699 2.15527 16.7996 2.24492 16.8747 2.3545L18.0194 4.0245L19.9614 4.59717C20.0887 4.63484 20.2049 4.70292 20.3 4.79555C20.3951 4.88818 20.4663 5.00257 20.5073 5.12884C20.5483 5.25511 20.558 5.38947 20.5354 5.52031C20.5129 5.65115 20.4589 5.77455 20.378 5.87984L19.1434 7.4845L19.1987 9.50784C19.2023 9.64055 19.1736 9.77217 19.115 9.89129C19.0564 10.0104 18.9696 10.1134 18.8622 10.1915C18.7548 10.2696 18.63 10.3203 18.4986 10.3393C18.3672 10.3583 18.2331 10.345 18.108 10.3005L16.2 9.6225Z" fill="#FF5723"/>
</svg>
