<svg width="32" height="32" viewBox="0 0 32 32" fill="none" xmlns="http://www.w3.org/2000/svg">
<path d="M9.89766 15.1048C10.0082 15.1048 10.1166 15.1356 10.2107 15.1937C10.3048 15.2518 10.3808 15.335 10.4302 15.4339C10.4797 15.5328 10.5006 15.6436 10.4907 15.7537C10.4808 15.8638 10.4404 15.969 10.374 16.0575C10.2745 16.1902 10.2139 16.348 10.199 16.5132C10.1841 16.6784 10.2155 16.8445 10.2897 16.9928C10.3639 17.1412 10.4779 17.266 10.619 17.3532C10.7601 17.4404 10.9227 17.4866 11.0886 17.4866C11.2544 17.4866 11.417 17.4404 11.5581 17.3532C11.6992 17.266 11.8133 17.1412 11.8874 16.9928C11.9616 16.8445 11.993 16.6784 11.9781 16.5132C11.9632 16.348 11.9026 16.1902 11.8031 16.0575C11.7368 15.969 11.6964 15.8638 11.6864 15.7537C11.6765 15.6436 11.6974 15.5328 11.7469 15.4339C11.7963 15.335 11.8724 15.2518 11.9664 15.1937C12.0605 15.1356 12.1689 15.1048 12.2795 15.1048H15.2567V12.9993C14.9609 13.042 14.6594 13.0206 14.3726 12.9366C14.0857 12.8526 13.8203 12.7078 13.5944 12.5122C13.3684 12.3165 13.1872 12.0746 13.063 11.8027C12.9388 11.5309 12.8745 11.2355 12.8745 10.9366C12.8745 10.6377 12.9388 10.3423 13.063 10.0705C13.1872 9.79865 13.3684 9.5567 13.5944 9.36106C13.8203 9.16542 14.0857 9.02067 14.3726 8.93662C14.6594 8.85258 14.9609 8.83121 15.2567 8.87397V3.20051C14.8607 3.19742 14.4649 3.2173 14.0712 3.26005C12.702 3.41708 11.3802 3.85598 10.189 4.54908C8.99785 5.24219 7.96313 6.17448 7.15005 7.28722C6.33698 8.39996 5.76317 9.66904 5.46477 11.0145C5.16638 12.36 5.14987 13.7526 5.41629 15.1048H9.89766Z" fill="#FF5723"/>
<path d="M16.4472 9.7459C16.4472 9.85648 16.4164 9.96488 16.3583 10.0589C16.3002 10.153 16.217 10.229 16.1181 10.2785C16.0192 10.3279 15.9084 10.3489 15.7983 10.3389C15.6882 10.329 15.583 10.2886 15.4945 10.2223C15.3618 10.1227 15.204 10.0621 15.0388 10.0472C14.8736 10.0323 14.7075 10.0637 14.5592 10.1379C14.4108 10.2121 14.286 10.3261 14.1988 10.4672C14.1116 10.6083 14.0654 10.7709 14.0654 10.9368C14.0654 11.1027 14.1116 11.2653 14.1988 11.4064C14.286 11.5475 14.4108 11.6615 14.5592 11.7357C14.7075 11.8099 14.8736 11.8413 15.0388 11.8264C15.204 11.8115 15.3618 11.7509 15.4945 11.6513C15.583 11.585 15.6882 11.5446 15.7983 11.5347C15.9084 11.5247 16.0192 11.5457 16.1181 11.5951C16.217 11.6446 16.3002 11.7206 16.3583 11.8147C16.4164 11.9087 16.4472 12.0171 16.4472 12.1277V15.105H18.5528C18.5388 15.0063 18.5316 14.9069 18.5313 14.8072C18.5313 14.2545 18.7509 13.7244 19.1417 13.3336C19.5326 12.9427 20.0627 12.7232 20.6154 12.7232C21.1681 12.7232 21.6982 12.9427 22.0891 13.3336C22.4799 13.7244 22.6995 14.2545 22.6995 14.8072C22.6992 14.9069 22.692 15.0063 22.678 15.105H25.0146C25.1428 14.474 25.2086 13.832 25.2111 13.1882C25.2103 10.7518 24.3189 8.39981 22.7048 6.57483C21.0907 4.74985 18.8652 3.5778 16.4472 3.2793V9.7459Z" fill="#FF5723"/>
<path d="M25.4574 16.2959H21.8073C21.6967 16.2959 21.5883 16.2651 21.4943 16.2069C21.4002 16.1488 21.3242 16.0656 21.2747 15.9667C21.2253 15.8678 21.2043 15.7571 21.2143 15.6469C21.2242 15.5368 21.2646 15.4316 21.3309 15.3431C21.4305 15.2104 21.4911 15.0527 21.506 14.8875C21.5209 14.7222 21.4895 14.5562 21.4153 14.4078C21.3411 14.2594 21.2271 14.1347 21.086 14.0475C20.9449 13.9603 20.7823 13.9141 20.6164 13.9141C20.4505 13.9141 20.2879 13.9603 20.1468 14.0475C20.0057 14.1347 19.8917 14.2594 19.8175 14.4078C19.7433 14.5562 19.7119 14.7222 19.7268 14.8875C19.7417 15.0527 19.8023 15.2104 19.9019 15.3431C19.9682 15.4316 20.0086 15.5368 20.0185 15.6469C20.0285 15.7571 20.0075 15.8678 19.9581 15.9667C19.9086 16.0656 19.8326 16.1488 19.7385 16.2069C19.6445 16.2651 19.5361 16.2959 19.4255 16.2959H16.4482V18.4014C16.5469 18.3874 16.6464 18.3802 16.746 18.38C17.2987 18.38 17.8288 18.5995 18.2196 18.9904C18.6105 19.3812 18.83 19.9113 18.83 20.464C18.83 21.0168 18.6105 21.5469 18.2196 21.9377C17.8288 22.3285 17.2987 22.5481 16.746 22.5481C16.6464 22.5479 16.5469 22.5407 16.4482 22.5267V28.8004H16.4697L17.0943 25.0538L21.6197 25.6195C21.9129 25.6561 22.2105 25.63 22.4928 25.5428C22.7751 25.4557 23.0357 25.3095 23.2572 25.114C23.4787 24.9185 23.6562 24.6781 23.7777 24.4088C23.8993 24.1396 23.9622 23.8475 23.9622 23.552V20.4801C23.9622 20.3553 23.9996 20.2333 24.0695 20.13C24.1395 20.0266 24.2388 19.9465 24.3546 19.9001L26.3792 19.0903C26.4648 19.0561 26.5418 19.0033 26.6046 18.9357C26.6674 18.8682 26.7145 18.7876 26.7424 18.6997C26.7704 18.6118 26.7785 18.5188 26.7663 18.4274C26.754 18.3359 26.7217 18.2484 26.6716 18.1709L25.4574 16.2959Z" fill="#FF5723"/>
<path d="M6.47793 28.8004H15.2567V21.655C15.2567 21.5444 15.2875 21.436 15.3456 21.3419C15.4037 21.2478 15.4869 21.1718 15.5858 21.1224C15.6847 21.0729 15.7955 21.052 15.9056 21.0619C16.0157 21.0718 16.1209 21.1123 16.2094 21.1786C16.3421 21.2781 16.4999 21.3387 16.6651 21.3536C16.8303 21.3685 16.9964 21.3371 17.1447 21.2629C17.2931 21.1888 17.4179 21.0747 17.5051 20.9336C17.5923 20.7925 17.6385 20.6299 17.6385 20.4641C17.6385 20.2982 17.5923 20.1356 17.5051 19.9945C17.4179 19.8534 17.2931 19.7394 17.1447 19.6652C16.9964 19.591 16.8303 19.5596 16.6651 19.5745C16.4999 19.5894 16.3421 19.65 16.2094 19.7495C16.1209 19.8159 16.0157 19.8563 15.9056 19.8662C15.7955 19.8761 15.6847 19.8552 15.5858 19.8057C15.4869 19.7563 15.4037 19.6803 15.3456 19.5862C15.2875 19.4921 15.2567 19.3837 15.2567 19.2732V16.2959H13.1512C13.1652 16.3945 13.1723 16.494 13.1726 16.5936C13.1726 17.1464 12.953 17.6765 12.5622 18.0673C12.1713 18.4581 11.6412 18.6777 11.0885 18.6777C10.5358 18.6777 10.0057 18.4581 9.61484 18.0673C9.224 17.6765 9.00443 17.1464 9.00443 16.5936C9.00469 16.494 9.01185 16.3945 9.02587 16.2959H5.73242C5.91973 16.8698 6.1589 17.4255 6.44696 17.956C7.65651 20.161 7.99053 22.7409 7.38242 25.1812L6.47793 28.8004Z" fill="#FF5723"/>
</svg>
