<svg width="33" height="32" viewBox="0 0 33 32" fill="none" xmlns="http://www.w3.org/2000/svg">
<path d="M25.8004 7.22461C25.3344 7.22461 24.9566 7.60239 24.9566 8.06837C24.9566 8.53434 25.3344 8.91212 25.8004 8.91212H27.4879C27.9539 8.91212 28.3316 8.53434 28.3316 8.06837C28.3316 7.60239 27.9539 7.22461 27.4879 7.22461H25.8004ZM25.6598 5.1428L27.1211 4.29905C27.5247 4.06606 27.6629 3.55002 27.43 3.14649C27.197 2.74295 26.6809 2.60469 26.2774 2.83767L24.816 3.68142C24.4125 3.91441 24.2742 4.43045 24.5072 4.83399C24.7402 5.23753 25.2562 5.37579 25.6598 5.1428ZM24.816 12.4553L26.2774 13.2991C26.6809 13.532 27.197 13.3938 27.43 12.9902C27.6629 12.5867 27.5247 12.0707 27.1211 11.8377L25.6598 10.9939C25.2562 10.7609 24.7402 10.8992 24.5072 11.3027C24.2742 11.7063 24.4125 12.2223 24.816 12.4553ZM6.11287 8.91212H7.80037C8.26634 8.91212 8.64412 8.53434 8.64412 8.06837C8.64412 7.60239 8.26634 7.22461 7.80037 7.22461H6.11287C5.64689 7.22461 5.26912 7.60239 5.26912 8.06837C5.26912 8.53434 5.64689 8.91212 6.11287 8.91212ZM6.47962 4.29905L7.94099 5.1428C8.34453 5.37579 8.86057 5.23753 9.09356 4.83399C9.32654 4.43045 9.18828 3.91441 8.78474 3.68142L7.32337 2.83767C6.91983 2.60469 6.40379 2.74295 6.1708 3.14649C5.93782 3.55002 6.07602 4.06606 6.47962 4.29905ZM7.94099 10.9939L6.47962 11.8377C6.07608 12.0707 5.93782 12.5867 6.1708 12.9902C6.40379 13.3938 6.91983 13.532 7.32337 13.2991L8.78474 12.4553C9.18828 12.2223 9.32654 11.7063 9.09356 11.3027C8.86057 10.8992 8.34453 10.7609 7.94099 10.9939ZM20.1051 17.0684V16.5059H13.4957V17.0684C13.4957 18.1557 14.3771 19.0371 15.4644 19.0371H18.1363C19.2236 19.0371 20.1051 18.1557 20.1051 17.0684ZM12.686 13.0553C13.2005 13.4796 13.4957 14.0634 13.4957 14.6571V14.8184H15.9566V9.54285L14.5163 8.10251C14.1868 7.773 14.1868 7.23879 14.5163 6.90928C14.8457 6.57976 15.38 6.57976 15.7095 6.90928L16.8004 8.00013L17.8913 6.90928C18.2207 6.57976 18.755 6.57976 19.0845 6.90928C19.414 7.23879 19.414 7.773 19.0845 8.10251L17.6441 9.54285V14.8184H20.1051V14.6571C20.1051 14.0634 20.4002 13.4796 20.9147 13.0553C22.411 11.8218 23.2691 10.004 23.2691 8.06837C23.2691 4.50149 20.3672 1.59961 16.8004 1.59961C13.2335 1.59961 10.3316 4.50149 10.3316 8.06837C10.3316 10.004 11.1898 11.8218 12.686 13.0553ZM31.1938 27.7567C31.136 27.2943 30.7143 26.9663 30.252 27.0241L16.8004 28.7056L3.34885 27.0241C2.88648 26.9663 2.46477 27.2943 2.407 27.7567C2.34918 28.219 2.67717 28.6408 3.13954 28.6986L16.6958 30.3931C16.7652 30.4018 16.8355 30.4018 16.9051 30.3931L30.4613 28.6986C30.9236 28.6408 31.2516 28.2191 31.1938 27.7567ZM19.8181 24.3014C18.5728 24.5455 17.6775 25.6363 17.6456 26.8993L29.4566 25.4229V23.4851C29.4566 22.9558 28.975 22.5572 28.455 22.6563L19.8432 24.2966L19.8181 24.3014ZM13.7826 24.3014L13.7575 24.2966L5.14576 22.6563C4.62578 22.5572 4.14411 22.9558 4.14411 23.4851V25.4229L15.9551 26.8993C15.9232 25.6363 15.0279 24.5455 13.7826 24.3014ZM28.3316 20.9619V19.9934C28.3316 19.4574 27.8385 19.0573 27.3141 19.1677L20.6461 20.5715C20.0643 20.6944 19.5044 20.9045 18.9854 21.1949C18.154 21.6594 17.6441 22.5427 17.6441 23.495V23.4953C18.1725 23.0793 18.8007 22.7812 19.4936 22.6455L28.3316 20.9619ZM15.9566 23.495C15.9566 22.5427 15.4467 21.6595 14.6154 21.1949C14.0964 20.9045 13.5365 20.6944 12.9546 20.5715L6.28668 19.1677C5.76226 19.0573 5.26912 19.4574 5.26912 19.9934V20.9619L14.1091 22.6458C14.801 22.7814 15.4286 23.0793 15.9566 23.495Z" fill="#FF5723"/>
</svg>
