<svg width="33" height="32" viewBox="0 0 33 32" fill="none" xmlns="http://www.w3.org/2000/svg">
<path d="M28.5728 4.91184C28.0528 4.35935 27.3151 4.04082 26.5546 4.04082H24.1333C24.1431 3.60531 24.1496 3.15685 24.1496 2.69531H8.53336C8.53336 3.15679 8.53984 3.60531 8.54961 4.04082H6.11212C5.35161 4.04082 4.61389 4.35935 4.09389 4.91184C3.56735 5.46764 3.2944 6.22809 3.33985 6.99838C3.77536 14.2589 7.52263 18.8153 13.4636 19.4914L12.3131 23.4953C10.9448 23.4953 9.8366 24.6036 9.8366 25.9718V28.6953H22.8496V25.9718C22.8496 24.6036 21.7413 23.4953 20.3731 23.4953L19.2226 19.4914C25.1506 18.8089 28.8946 14.2556 29.3268 6.99838C29.3723 6.23139 29.0993 5.47088 28.5728 4.91184ZM5.93661 6.84235C5.93337 6.77088 5.96263 6.72213 5.98859 6.6961C6.03734 6.64412 6.09587 6.64412 6.11212 6.64412H8.67314C9.0599 11.7564 10.1876 14.6553 11.2829 16.2934C7.11314 14.5448 6.11859 9.87462 5.93661 6.84235ZM21.4001 16.2836C22.4953 14.6423 23.6199 11.7466 24.0066 6.64088H26.5578C26.5773 6.64088 26.6326 6.64088 26.6813 6.69287C26.7074 6.71889 26.7366 6.76764 26.7333 6.83912C26.5481 9.87138 25.5568 14.5286 21.4001 16.2836Z" fill="#469103"/>
</svg>
