<svg width="33" height="32" viewBox="0 0 33 32" fill="none" xmlns="http://www.w3.org/2000/svg">
<g clip-path="url(#clip0_314_13417)">
<path d="M28.1174 9.85118C25.4514 7.75717 22.8254 5.66516 20.1694 3.57115C19.0173 2.68514 18.4573 1.55914 18.6913 0.103128C18.7313 -0.258875 18.5293 -0.380875 18.1313 -0.258875C17.2153 0.0211271 16.4593 0.54713 16.0213 1.39314C15.4213 2.60114 14.4713 3.04514 13.2713 3.00514C11.4773 2.92314 10.3653 3.89315 9.40929 5.26516C8.36928 6.72117 7.85928 8.41318 7.46128 10.1072C7.02327 11.9232 6.81927 13.7412 6.74727 15.5892C6.66527 17.0032 6.70727 18.3752 6.66527 19.7812V23.6953H24.2674V20.8672C24.2674 20.8672 24.4094 19.6772 23.5294 18.8052C22.6494 17.9332 21.7154 17.1172 21.7154 17.1172C21.2649 16.7491 20.8576 16.3311 20.5014 15.8712L17.2553 11.6712C17.4573 11.8352 17.6533 11.9912 17.8553 12.1552C18.8533 12.9192 19.9253 13.2412 21.1574 12.9192C21.8714 12.7552 22.5934 12.8372 23.2274 13.2392C23.5814 13.4752 23.9734 13.6792 24.3674 13.8832C25.2934 14.3632 26.4334 14.1432 27.0994 13.3432C27.5094 12.8512 27.9194 12.3592 28.3294 11.8752C28.8514 11.2572 28.7554 10.3512 28.1174 9.85118ZM26.5614 30.2493L24.5614 26.2473C24.4781 26.0815 24.3504 25.9421 24.1926 25.8446C24.0347 25.7472 23.8529 25.6955 23.6674 25.6953H7.66728C7.48176 25.6955 7.29994 25.7472 7.14209 25.8446C6.98423 25.9421 6.85655 26.0815 6.77327 26.2473L4.77326 30.2473C4.69687 30.3996 4.6608 30.5689 4.6685 30.739C4.6762 30.9092 4.72742 31.0746 4.81726 31.2193C4.99926 31.5133 5.32126 31.6953 5.66727 31.6953H25.6674C26.0134 31.6953 26.3354 31.5153 26.5194 31.2213C26.6089 31.0764 26.6598 30.911 26.6672 30.7408C26.6745 30.5706 26.6381 30.4014 26.5614 30.2493Z" fill="#469103"/>
</g>
<defs>
<clipPath id="clip0_314_13417">
<rect width="32" height="32" fill="white" transform="translate(0.666504)"/>
</clipPath>
</defs>
</svg>
