<svg width="32" height="32" viewBox="0 0 32 32" fill="none" xmlns="http://www.w3.org/2000/svg">
<path d="M28.0313 3.88279C26.9759 3.88279 26.1172 4.74144 26.1172 5.79686V11.4332C26.494 11.6087 26.837 11.849 27.1307 12.1432C28.5191 13.5313 28.5191 15.7822 27.1309 17.1704L24.0315 20.2698C23.7112 20.5902 23.1918 20.5902 22.8714 20.2698C22.5511 19.9494 22.5511 19.4301 22.8714 19.1097L25.9708 16.0104C26.7183 15.2629 26.7182 14.0509 25.9706 13.3034C25.2231 12.5561 24.0114 12.5561 23.2639 13.3035L18.6621 17.9055C17.4744 19.0934 16.8203 20.6727 16.8203 22.3525L16.8203 29.6953H23.6563C24.1093 29.6953 24.4766 29.328 24.4766 28.875V25.9275C24.4769 25.4798 24.6338 25.0463 24.9202 24.7021L28.4876 20.4212C29.4277 19.2932 29.9453 17.8633 29.9453 16.395V5.79686C29.9453 4.74144 29.0867 3.88279 28.0313 3.88279ZM13.3378 17.9055L8.73608 13.3035C7.98867 12.5561 6.77685 12.5561 6.02932 13.3034C5.28174 14.0509 5.28169 15.2629 6.02921 16.0104L9.12852 19.1097C9.44888 19.4301 9.44888 19.9494 9.12852 20.2698C8.80816 20.5902 8.28879 20.5902 7.96843 20.2698L4.86907 17.1704C3.48083 15.7822 3.48088 13.5313 4.86929 12.1432C5.16291 11.849 5.50595 11.6087 5.88276 11.4332L5.88282 5.79686C5.88282 4.74144 5.02417 3.88279 3.96875 3.88279C2.91334 3.88279 2.05469 4.74144 2.05469 5.79686V16.395C2.05469 17.8633 2.57236 19.2932 3.51233 20.4212L7.07976 24.7021C7.36614 25.0462 7.52308 25.4797 7.52339 25.9274V28.875C7.52339 29.328 7.89067 29.6953 8.3437 29.6953H15.1796V22.3524C15.1797 20.6727 14.5256 19.0934 13.3378 17.9055ZM21.7949 2.91543C20.203 1.32347 17.6339 1.28935 16 2.8131C14.3662 1.28935 11.7971 1.32347 10.2051 2.91543C8.5782 4.54227 8.5782 7.18942 10.2051 8.81627L15.4199 14.0311C15.7403 14.3515 16.2597 14.3515 16.58 14.0311L21.7949 8.81627C23.4218 7.18942 23.4218 4.54227 21.7949 2.91543Z" fill="#469103"/>
</svg>
