<svg xmlns="http://www.w3.org/2000/svg" width="33" height="32" fill="none" viewBox="0 0 33 32"><path fill="#3689DB" d="M16.667 11.945a4.2 4.2 0 0 0-.96.12 2.244 2.244 0 1 1-3.171 3.171 4.245 4.245 0 1 0 4.13-3.29"/><path fill="#3689DB" d="m29.924 14.251-1.414-1.415a16.77 16.77 0 0 0-23.688 0l-1.414 1.415a2.75 2.75 0 0 0 0 3.888l1.414 1.415a16.77 16.77 0 0 0 23.688 0l1.414-1.415a2.75 2.75 0 0 0 0-3.888m-13.258 7.694a5.744 5.744 0 0 1-4.398-9.446c.179-.283.418-.523.701-.702a5.747 5.747 0 1 1 3.697 10.148m0-16a.75.75 0 0 1-.75-.75v-2a.75.75 0 1 1 1.5 0v2a.75.75 0 0 1-.75.75m6 1a.75.75 0 0 1-.67-1.085l1-2a.75.75 0 0 1 1.341.67l-1 2a.75.75 0 0 1-.672.415m-11.999 0a.75.75 0 0 1-.672-.415l-1-2a.75.75 0 0 1 1.342-.67l1 2a.75.75 0 0 1-.67 1.085m6 23a.75.75 0 0 1-.75-.75v-2a.75.75 0 1 1 1.5 0v2a.75.75 0 0 1-.75.75m7-1a.75.75 0 0 1-.672-.415l-1-2a.75.75 0 0 1 1.342-.67l1 2a.75.75 0 0 1-.67 1.085m-14.002 0a.75.75 0 0 1-.67-1.085l1-2a.75.75 0 0 1 1.342.67l-1 2a.75.75 0 0 1-.672.415"/></svg>