<svg xmlns="http://www.w3.org/2000/svg" width="33" height="32" fill="none" viewBox="0 0 33 32"><path fill="#FF5723" d="M11.42 20.76A6.65 6.65 0 0 0 8.867 26v2h-4c-1.107 0-2-.893-2-2v-1.333A4.663 4.663 0 0 1 7.533 20h1.334c.946 0 1.82.28 2.553.76M24.2 20a3 3 0 1 0 0-6 3 3 0 0 0 0 6"/><path fill="#FF5723" d="M8.2 20a3 3 0 1 0 0-6 3 3 0 0 0 0 6m21.333 4.667V26c0 1.107-.893 2-2 2h-4v-2c0-2.127-1-4.02-2.553-5.24a4.64 4.64 0 0 1 2.553-.76h1.334a4.663 4.663 0 0 1 4.666 4.667M16.2 20.666a3.667 3.667 0 1 0 0-7.333 3.667 3.667 0 0 0 0 7.333"/><path fill="#FF5723" d="M16.867 20.667h-1.334A5.34 5.34 0 0 0 10.2 26v2c0 1.102.897 2 2 2h8c1.103 0 2-.898 2-2v-2a5.34 5.34 0 0 0-5.333-5.334m9-9.545-1.609.572a.69.69 0 0 1-.92-.668l.047-1.707-1.042-1.353a.69.69 0 0 1 .352-1.082l1.638-.483.965-1.408a.69.69 0 0 1 1.137 0l.966 1.408 1.638.483a.69.69 0 0 1 .351 1.082l-1.041 1.353.046 1.707a.69.69 0 0 1-.92.668zm-19.334 0-1.608.572a.69.69 0 0 1-.92-.668l.046-1.707L3.01 7.966a.69.69 0 0 1 .351-1.082L5 6.4l.966-1.408a.69.69 0 0 1 1.137 0L8.067 6.4l1.638.483a.69.69 0 0 1 .352 1.082L9.015 9.319l.047 1.707a.69.69 0 0 1-.92.668zm9.667-1.5-1.907.678a.817.817 0 0 1-1.091-.792l.055-2.023-1.234-1.605a.817.817 0 0 1 .416-1.283l1.942-.573 1.145-1.67a.818.818 0 0 1 1.349 0l1.144 1.67 1.942.573a.818.818 0 0 1 .417 1.283l-1.235 1.604.056 2.024a.818.818 0 0 1-1.091.793z"/></svg>