<svg xmlns="http://www.w3.org/2000/svg" width="32" height="32" fill="none" viewBox="0 0 32 32"><path fill="#FF5723" d="M9.898 15.105a.596.596 0 0 1 .476.953.893.893 0 1 0 1.43 0 .597.597 0 0 1 .476-.953h2.977v-2.106a2.085 2.085 0 0 1-.884-4.062 2.1 2.1 0 0 1 .884-.063V3.201q-.595-.006-1.186.06a9.98 9.98 0 0 0-8.655 11.844z"/><path fill="#FF5723" d="M16.447 9.746a.595.595 0 0 1-.952.476.893.893 0 1 0 0 1.43.596.596 0 0 1 .952.476v2.977h2.106a2.084 2.084 0 1 1 4.125 0h2.337a10 10 0 0 0 .196-1.917 9.987 9.987 0 0 0-8.764-9.909z"/><path fill="#FF5723" d="M25.457 16.296h-3.65a.595.595 0 0 1-.476-.953.892.892 0 1 0-1.43 0 .596.596 0 0 1-.476.953h-2.977V18.4q.148-.02.298-.021a2.084 2.084 0 1 1-.298 4.147V28.8h.022l.624-3.746 4.526.566a2.084 2.084 0 0 0 2.342-2.068V20.48a.625.625 0 0 1 .393-.58l2.024-.81a.623.623 0 0 0 .293-.92z"/><path fill="#FF5723" d="M6.478 28.8h8.779v-7.145a.596.596 0 0 1 .952-.476.893.893 0 1 0 0-1.43.595.595 0 0 1-.952-.476v-2.977H13.15q.02.148.022.298a2.084 2.084 0 1 1-4.147-.298H5.732q.282.863.715 1.66a10 10 0 0 1 .935 7.225z"/></svg>