<svg xmlns="http://www.w3.org/2000/svg" width="125" height="39" fill="none" viewBox="0 0 125 39"><path fill="#fff" d="M60.693 15.705h3.262l.278 1.404h.094c.931-.89 2.098-1.686 3.682-1.686 2.564 0 3.637 1.874 3.637 4.778v7.211h-4.009v-6.698c0-1.497-.371-1.874-1.163-1.874-.747 0-1.164.328-1.772.89v7.679h-4.009V15.702zm12.634 5.854c0-3.794 2.751-6.136 5.593-6.136 3.45 0 5.079 2.53 5.079 5.665 0 .701-.094 1.406-.162 1.686h-6.64c.372 1.406 1.396 1.874 2.702 1.874.792 0 1.54-.234 2.376-.702l1.307 2.388c-1.258.89-2.936 1.358-4.242 1.358-3.4 0-6.013-2.248-6.013-6.136zm7.27-1.407c0-.89-.371-1.686-1.583-1.686-.886 0-1.633.517-1.866 1.686zm4.733 1.524q0-2.552 1.517-4.213 1.492-1.663 3.775-1.663c1.523 0 2.697.562 3.333 1.686h.094V16.5q0-.4.372-.4h2.68q.373 0 .372.4v10.632q.001 2.645-1.633 4.145c-1.086.997-2.596 1.497-4.52 1.497-1.632 0-2.957-.367-3.985-1.1-1.025-.735-1.623-1.732-1.794-3v-.093q-.001-.305.371-.306h2.68c.2 0 .343.11.42.328q.398 1.242 2.331 1.241 2.75 0 2.751-2.715V25.7h-.116q-.979 1.663-3.356 1.664c-1.584 0-2.783-.527-3.785-1.582q-1.503-1.58-1.503-4.11zm3.611.023q0 1.145.699 1.897.697.75 1.865.75 1.168-.001 1.875-.737.71-.737.711-1.907 0-1.17-.711-1.92-.712-.75-1.875-.75-1.166 0-1.865.75t-.699 1.92zm9.657-.14c0-3.794 2.751-6.136 5.592-6.136 3.45 0 5.079 2.53 5.079 5.665 0 .701-.094 1.406-.162 1.686h-6.64c.372 1.406 1.4 1.874 2.703 1.874.792 0 1.539-.234 2.376-.702l1.306 2.388c-1.257.89-2.935 1.358-4.241 1.358-3.401 0-6.013-2.248-6.013-6.136zm7.27-1.407c0-.89-.372-1.686-1.584-1.686-.886 0-1.632.517-1.865 1.686zm4.946 3.138V11.116h4.009v12.317c0 .796.372 1.03.653 1.03.139 0 .233 0 .42-.046l.466 2.95c-.42.188-1.073.328-1.956.328-2.703 0-3.588-1.78-3.588-4.402zm6.712-11.05c0-1.17.931-2.014 2.237-2.014S122 11.07 122 12.239s-.931 2.014-2.237 2.014-2.237-.844-2.237-2.014m.232 3.465h4.009v11.707h-4.009zm-65.832-3.792c-4.193 0-7.038 2.81-7.038 7.821 0 5.012 2.842 7.962 7.038 7.962s7.038-2.95 7.038-7.962-2.842-7.821-7.038-7.821m0 3.465c.94 0 1.69.43 2.198 1.222a20.7 20.7 0 0 0-5.13 3.3l-.003-.169c0-2.764 1.118-4.356 2.935-4.356zm0 8.852a2.42 2.42 0 0 1-1.872-.851 17.3 17.3 0 0 1 4.804-3.528c-.032 2.693-1.141 4.379-2.932 4.379"/><path fill="#fff" fill-rule="evenodd" d="M19.725 38.19c10.269-.104 18.56-8.46 18.56-18.754C38.286 9.077 29.89.68 19.53.68S.774 9.077.774 19.436c0 7.787 4.745 14.465 11.501 17.301l-.145-.432c-.108-.323-.217-.65-.342-.975l-.222-.67v-.001c-.77-2.315-1.525-4.59-1.757-7.064-.296-2.986 1.817-4.103 4.425-4.38 2.847-.432 5.698-1.261 8.184-2.743 1.733-1.07 3.554-2.405 4.108-4.39a2.87 2.87 0 0 0-.034-1.506 2.37 2.37 0 0 0-1.774-.245c-3.66.713-5.166-5.037-2.396-6.979 2.262-1.767 6.024-.363 6.003 2.642l.007.148c.013.247.025.471.046.607.195.036.411.054.636.073.666.057 1.404.12 1.878.676 2.06 2.229 3.856 5.575 1.919 8.338.348.335.833.625 1.276.89l.026.015.625.356-.068.613c-.234 1.535-.775 4.259-2.645 4.578-.996.112-1.388-.732-1.28-1.573q.004-.12.012-.245c.023-.41.048-.84-.3-1.08-.239-.17-.614-.224-.942-.27l-.083-.012c-.588-.072-1.157-.613-1.254-1.16-.246-1.242.271-2.427.794-3.505l-1.114 1.003c-.993 2.399-2.677 4.54-4.82 6.013-1.61 1.138-3.548 1.695-5.434 2.026l.632.22-.003.002c.212.216.552.436.86.636.134.087.26.17.369.246.426.297.85.625 1.25 1.013.68.644 1.628 1.832 1.373 2.958-.158.965-1.08 1.586-1.84 1.927-.016.142-.04.281-.061.406q-.06.326-.13.672c-.11.566-.227 1.155-.284 1.682-.033.29-.038.569-.043.848zM32.24 25q.003.022.009.043c.006.025.018.032-.007-.037zm-2.667-12.272-.01-.01-.025-.025c.007.01.021.023.032.033zm-1.317-2.011-.006-.004zm4.267 9.492-.106.122a.5.5 0 0 0 .106-.122m-12.265 14.13a.5.5 0 0 0 .004-.275q.007.133-.004.275M8.551 17.585c-.24-1.279-.121-2.657.688-3.72 1.055-1.426 2.994-2.148 4.715-1.642 2.707.854 4.826 3.737 4.204 6.57-.46 2.16-2.698 4.271-4.964 3.552a4.6 4.6 0 0 1-1.35-.647l-.99-.516c.044.916-.871 1.629-1.736 1.748-1.637.284-2.894-1.214-2.872-2.793-.083-1.385 1.014-2.523 2.305-2.552" clip-rule="evenodd"/></svg>