<svg width="42" height="42" viewBox="0 0 42 42" fill="none" xmlns="http://www.w3.org/2000/svg">
<rect x="0.828947" y="0.828947" width="40.3421" height="40.3421" rx="20.1711" fill="white"/>
<rect x="0.828947" y="0.828947" width="40.3421" height="40.3421" rx="20.1711" stroke="#414141" stroke-width="1.65789"/>
<path d="M29.2648 26.2476C29.2648 26.5461 29.1985 26.8528 29.0575 27.1512C28.9166 27.4496 28.7342 27.7315 28.4939 27.9967C28.0877 28.4444 27.64 28.7676 27.1344 28.9749C26.637 29.1821 26.0982 29.2899 25.5179 29.2899C24.6724 29.2899 23.7689 29.0909 22.8156 28.6848C21.8623 28.2786 20.909 27.7315 19.964 27.0434C19.0107 26.3471 18.1071 25.5762 17.245 24.7224C16.3912 23.8603 15.6203 22.9567 14.9323 22.0117C14.2525 21.0667 13.7054 20.1217 13.3075 19.185C12.9096 18.24 12.7107 17.3365 12.7107 16.4744C12.7107 15.9107 12.8102 15.3719 13.0091 14.8745C13.2081 14.3688 13.5231 13.9046 13.9624 13.4901C14.4929 12.9679 15.0732 12.7109 15.6866 12.7109C15.9187 12.7109 16.1508 12.7607 16.3581 12.8601C16.5736 12.9596 16.7642 13.1088 16.9135 13.3244L18.8366 16.035C18.9858 16.2423 19.0936 16.4329 19.1682 16.6153C19.2428 16.7894 19.2842 16.9634 19.2842 17.1209C19.2842 17.3199 19.2262 17.5188 19.1102 17.7095C19.0024 17.9001 18.8449 18.0991 18.646 18.298L18.016 18.9529C17.9248 19.0441 17.8833 19.1519 17.8833 19.2845C17.8833 19.3508 17.8916 19.4088 17.9082 19.4751C17.9331 19.5415 17.9579 19.5912 17.9745 19.6409C18.1237 19.9145 18.3807 20.2709 18.7454 20.702C19.1185 21.133 19.5164 21.5724 19.9474 22.0117C20.395 22.4511 20.8261 22.8573 21.2654 23.2303C21.6965 23.595 22.0529 23.8437 22.3348 23.9929C22.3762 24.0095 22.426 24.0344 22.484 24.0592C22.5503 24.0841 22.6166 24.0924 22.6912 24.0924C22.8321 24.0924 22.9399 24.0426 23.0311 23.9515L23.6611 23.3298C23.8683 23.1225 24.0673 22.965 24.2579 22.8655C24.4486 22.7495 24.6392 22.6915 24.8465 22.6915C25.004 22.6915 25.1698 22.7246 25.3521 22.7992C25.5345 22.8738 25.7252 22.9816 25.9324 23.1225L28.6762 25.0705C28.8917 25.2198 29.041 25.3938 29.1321 25.6011C29.215 25.8083 29.2648 26.0155 29.2648 26.2476Z" stroke="#414141" stroke-width="1.49211" stroke-miterlimit="10"/>
<path d="M26.3881 18.5126C26.3881 18.0153 25.9985 17.2526 25.4183 16.6309C24.8877 16.059 24.1831 15.6113 23.4868 15.6113" stroke="#414141" stroke-width="1.49211" stroke-linecap="round" stroke-linejoin="round"/>
<path d="M29.2894 18.5136C29.2894 15.3055 26.6948 12.7109 23.4868 12.7109" stroke="#414141" stroke-width="1.49211" stroke-linecap="round" stroke-linejoin="round"/>
</svg>
