<svg width="33" height="32" viewBox="0 0 33 32" fill="none" xmlns="http://www.w3.org/2000/svg">
<path d="M22.9251 14.1991C20.196 14.1991 17.9753 16.4198 17.9753 19.1489C17.9753 21.8781 20.196 24.0988 22.9251 24.0988C25.6543 24.0988 27.8749 21.8781 27.8749 19.1489C27.8749 16.4198 25.6543 14.1991 22.9251 14.1991ZM25.0237 18.3547C23.5848 20.5134 23.9929 19.9014 23.2238 21.0546C22.9475 21.4689 22.3883 21.5789 21.9756 21.3038L20.6257 20.4038C20.2123 20.1282 20.1009 19.5697 20.3765 19.1557C20.6521 18.7423 21.2107 18.6309 21.6247 18.9065L22.2254 19.307C23.6607 17.1543 23.5835 17.2139 23.8251 17.0762C24.6448 16.602 25.5505 17.5635 25.0237 18.3547ZM18.8753 24.5454V29.4986C18.8753 30.1881 19.6221 30.6227 20.2218 30.2798L22.9251 28.7353L25.6284 30.2798C26.2257 30.6222 26.975 30.19 26.975 29.4986V24.5454C24.5772 26.3494 21.2764 26.3519 18.8753 24.5454ZM24.725 12.6433V3.55422C24.725 2.47651 23.8481 1.59961 22.7704 1.59961H6.8804C5.80269 1.59961 4.92578 2.47651 4.92578 3.55422V24.3941C4.92578 25.4718 5.80269 26.3487 6.8804 26.3487H17.0753C17.0753 22.4758 17.0693 22.7156 17.0894 22.5373C14.0766 17.3722 18.874 11.0184 24.725 12.6433ZM10.3256 6.09944H17.9753C18.4725 6.09944 18.8753 6.50217 18.8753 6.99941C18.8753 7.49664 18.4725 7.89937 17.9753 7.89937H10.3256C9.82835 7.89937 9.42561 7.49664 9.42561 6.99941C9.42561 6.50217 9.82835 6.09944 10.3256 6.09944ZM14.8254 15.0991H10.3256C9.82835 15.0991 9.42561 14.6964 9.42561 14.1991C9.42561 13.7019 9.82835 13.2992 10.3256 13.2992H14.8254C15.3226 13.2992 15.7254 13.7019 15.7254 14.1991C15.7254 14.6964 15.3226 15.0991 14.8254 15.0991ZM10.3256 11.4992C9.82835 11.4992 9.42561 11.0965 9.42561 10.5993C9.42561 10.102 9.82835 9.6993 10.3256 9.6993H17.9753C18.4725 9.6993 18.8753 10.102 18.8753 10.5993C18.8753 11.0965 18.4725 11.4992 17.9753 11.4992H10.3256Z" fill="#FF5723"/>
</svg>
