<svg width="33" height="32" viewBox="0 0 33 32" fill="none" xmlns="http://www.w3.org/2000/svg">
<g clip-path="url(#clip0_314_13461)">
<path d="M8.47846 18.8139C9.71292 18.8139 10.8968 18.3235 11.7697 17.4506C12.6426 16.5777 13.133 15.3938 13.133 14.1594C13.133 12.9249 12.6426 11.741 11.7697 10.8681C10.8968 9.99522 9.71292 9.50483 8.47846 9.50483C7.244 9.50483 6.0601 9.99522 5.1872 10.8681C4.3143 11.741 3.82392 12.9249 3.82392 14.1594C3.82392 15.3938 4.3143 16.5777 5.1872 17.4506C6.0601 18.3235 7.244 18.8139 8.47846 18.8139ZM16.6239 31.0321V28.123C16.6239 23.4685 12.013 20.5594 8.47846 20.5594C4.94392 20.5594 0.333008 23.4685 0.333008 28.123V31.0321H16.6239ZM30.0057 1.35938H15.4603C14.843 1.35938 14.2511 1.60457 13.8147 2.04102C13.3782 2.47747 13.133 3.06942 13.133 3.68665V8.96607C14.5579 10.2437 15.4603 12.0939 15.4603 14.1594C15.4603 15.1648 15.2433 16.1172 14.8616 16.9812C15.0536 17.0324 15.2526 17.0685 15.4603 17.0685H20.1148V19.0845C20.1148 19.2462 20.1587 19.4048 20.2418 19.5435C20.3249 19.6822 20.4441 19.7958 20.5866 19.872C20.7292 19.9483 20.8898 19.9844 21.0513 19.9766C21.2128 19.9687 21.3691 19.9172 21.5036 19.8274L25.6421 17.0685H30.0057C30.623 17.0685 31.2149 16.8233 31.6514 16.3868C32.0878 15.9504 32.333 15.3584 32.333 14.7412V3.68665C32.333 3.06942 32.0878 2.47747 31.6514 2.04102C31.2149 1.60457 30.623 1.35938 30.0057 1.35938Z" fill="#3689DB"/>
</g>
<defs>
<clipPath id="clip0_314_13461">
<rect width="32" height="32" fill="white" transform="translate(0.333008)"/>
</clipPath>
</defs>
</svg>
