<svg width="32" height="32" viewBox="0 0 32 32" fill="none" xmlns="http://www.w3.org/2000/svg">
<path d="M22.7313 7.21453H27.8258L22.4639 1.70508V6.93511C22.4639 7.08909 22.5838 7.21453 22.7313 7.21453Z" fill="#3689DB"/>
<path d="M22.7314 8.97271C21.6577 8.97271 20.7839 8.05884 20.7839 6.93548V1.19531H6.81341C5.08487 1.19531 3.67871 2.66639 3.67871 4.47469V27.9159C3.67871 29.7242 5.08487 31.1953 6.81341 31.1953H25.1876C26.9163 31.1953 28.3223 29.7242 28.3223 27.9159V8.97267L22.7314 8.97271ZM20.811 23.9297H9.9901C9.52613 23.9297 9.14998 23.5362 9.14998 23.0508C9.14998 22.5654 9.52613 22.1719 9.9901 22.1719H20.811C21.2752 22.1719 21.6512 22.5654 21.6512 23.0508C21.6512 23.5362 21.2752 23.9297 20.811 23.9297ZM9.14998 19.5351C9.14998 19.0498 9.52613 18.6562 9.9901 18.6562H19.6463C20.1105 18.6562 20.4864 19.0498 20.4864 19.5351C20.4864 20.0205 20.1101 20.4141 19.6463 20.4141H9.9901C9.52613 20.4141 9.14998 20.0205 9.14998 19.5351ZM21.8327 16.8984H9.9901C9.52613 16.8984 9.14998 16.5049 9.14998 16.0195C9.14998 15.5341 9.52613 15.1406 9.9901 15.1406H21.8327C22.2967 15.1406 22.6728 15.5341 22.6728 16.0195C22.6728 16.5049 22.2967 16.8984 21.8327 16.8984Z" fill="#3689DB"/>
</svg>
