<svg width="33" height="32" viewBox="0 0 33 32" fill="none" xmlns="http://www.w3.org/2000/svg">
<path d="M16.6668 11.9453C16.3433 11.9481 16.0212 11.988 15.7068 12.0643C15.9274 12.2697 16.1043 12.5174 16.2271 12.7927C16.3498 13.0679 16.4158 13.3651 16.4212 13.6664C16.4266 13.9678 16.3713 14.2671 16.2584 14.5466C16.1456 14.826 15.9777 15.0799 15.7646 15.2931C15.5515 15.5062 15.2977 15.6742 15.0183 15.7871C14.7388 15.9001 14.4395 15.9555 14.1382 15.9502C13.8368 15.9449 13.5396 15.879 13.2644 15.7563C12.9891 15.6337 12.7413 15.4568 12.5358 15.2363C12.3379 16.0946 12.4118 16.9932 12.7474 17.8076C13.083 18.622 13.6636 19.3119 14.4088 19.7815C15.154 20.2512 16.0268 20.4774 16.9063 20.4289C17.7858 20.3803 18.6284 20.0593 19.3173 19.5105C20.0062 18.9617 20.5074 18.2121 20.7513 17.3657C20.9952 16.5193 20.9697 15.618 20.6785 14.7867C20.3872 13.9554 19.8446 13.2353 19.1258 12.7262C18.407 12.2171 17.5477 11.9442 16.6668 11.9453Z" fill="#3689DB"/>
<path d="M29.9244 14.2513L28.5104 12.8363C25.3668 9.6995 21.1073 7.93783 16.6664 7.93783C12.2255 7.93783 7.96592 9.6995 4.82235 12.8363L3.40835 14.2513C3.15304 14.5066 2.95051 14.8097 2.81233 15.1432C2.67415 15.4768 2.60303 15.8343 2.60303 16.1953C2.60303 16.5564 2.67415 16.9139 2.81233 17.2474C2.95051 17.581 3.15304 17.884 3.40835 18.1393L4.82235 19.5543C7.96605 22.6909 12.2255 24.4524 16.6664 24.4524C21.1072 24.4524 25.3667 22.6909 28.5104 19.5543L29.9244 18.1393C30.1797 17.884 30.3822 17.581 30.5204 17.2474C30.6586 16.9139 30.7297 16.5564 30.7297 16.1953C30.7297 15.8343 30.6586 15.4768 30.5204 15.1432C30.3822 14.8097 30.1797 14.5066 29.9244 14.2513ZM16.6664 21.9453C15.5715 21.9461 14.4993 21.634 13.5759 21.0458C12.6525 20.4575 11.9164 19.6177 11.4542 18.6252C10.9921 17.6327 10.8232 16.5288 10.9675 15.4435C11.1117 14.3582 11.563 13.3367 12.2684 12.4993C12.447 12.2162 12.6865 11.9764 12.9694 11.7973C13.6769 11.2025 14.5175 10.7872 15.4198 10.5865C16.322 10.3858 17.2594 10.4056 18.1524 10.6443C19.0454 10.883 19.8676 11.3336 20.5494 11.9577C21.2311 12.5819 21.7523 13.3613 22.0687 14.2298C22.3851 15.0983 22.4874 16.0303 22.3669 16.9467C22.2464 17.8631 21.9066 18.737 21.3765 19.4942C20.8463 20.2513 20.1413 20.8695 19.3214 21.2962C18.5014 21.7229 17.5907 21.9456 16.6664 21.9453ZM16.6664 5.94531C16.4674 5.94531 16.2767 5.86629 16.136 5.72564C15.9954 5.58499 15.9164 5.39422 15.9164 5.19531V3.19531C15.9164 2.9964 15.9954 2.80563 16.136 2.66498C16.2767 2.52433 16.4674 2.44531 16.6664 2.44531C16.8653 2.44531 17.056 2.52433 17.1967 2.66498C17.3373 2.80563 17.4164 2.9964 17.4164 3.19531V5.19531C17.4164 5.39422 17.3373 5.58499 17.1967 5.72564C17.056 5.86629 16.8653 5.94531 16.6664 5.94531ZM22.6654 6.94531C22.5376 6.94514 22.4121 6.91235 22.3006 6.85006C22.1891 6.78777 22.0953 6.69804 22.0282 6.58937C21.9611 6.4807 21.9229 6.3567 21.9171 6.22911C21.9114 6.10152 21.9383 5.97458 21.9954 5.86031L22.9954 3.86031C23.0851 3.68394 23.241 3.5502 23.4289 3.48824C23.6169 3.42628 23.8217 3.44111 23.9988 3.52951C24.1758 3.61791 24.3108 3.77271 24.3742 3.96017C24.4376 4.14763 24.4244 4.35257 24.3374 4.53031L23.3374 6.53031C23.275 6.65515 23.1791 6.76012 23.0604 6.83344C22.9417 6.90675 22.8049 6.94549 22.6654 6.94531ZM10.6674 6.94531C10.5278 6.94549 10.391 6.90675 10.2723 6.83344C10.1536 6.76012 10.0577 6.65515 9.99535 6.53031L8.99535 4.53031C8.90833 4.35257 8.89509 4.14763 8.95852 3.96017C9.02194 3.77271 9.15689 3.61791 9.33395 3.52951C9.51101 3.44111 9.71584 3.42628 9.90379 3.48824C10.0917 3.5502 10.2476 3.68394 10.3374 3.86031L11.3374 5.86031C11.3944 5.97466 11.4214 6.10169 11.4156 6.22936C11.4098 6.35703 11.3714 6.4811 11.3042 6.5898C11.237 6.69849 11.1431 6.7882 11.0315 6.85043C10.9198 6.91265 10.7942 6.94531 10.6664 6.94531H10.6674ZM16.6664 29.9453C16.4674 29.9453 16.2767 29.8663 16.136 29.7256C15.9954 29.585 15.9164 29.3942 15.9164 29.1953V27.1953C15.9164 26.9964 15.9954 26.8056 16.136 26.665C16.2767 26.5243 16.4674 26.4453 16.6664 26.4453C16.8653 26.4453 17.056 26.5243 17.1967 26.665C17.3373 26.8056 17.4164 26.9964 17.4164 27.1953V29.1953C17.4164 29.3942 17.3373 29.585 17.1967 29.7256C17.056 29.8663 16.8653 29.9453 16.6664 29.9453ZM23.6674 28.9453C23.5278 28.9455 23.391 28.9067 23.2723 28.8334C23.1536 28.7601 23.0577 28.6551 22.9954 28.5303L21.9954 26.5303C21.9083 26.3526 21.8951 26.1476 21.9585 25.9602C22.0219 25.7727 22.1569 25.6179 22.334 25.5295C22.511 25.4411 22.7158 25.4263 22.9038 25.4882C23.0917 25.5502 23.2476 25.6839 23.3374 25.8603L24.3374 27.8603C24.3944 27.9747 24.4214 28.1017 24.4156 28.2294C24.4098 28.357 24.3714 28.4811 24.3042 28.5898C24.237 28.6985 24.1431 28.7882 24.0315 28.8504C23.9198 28.9126 23.7952 28.9453 23.6674 28.9453ZM9.66535 28.9453C9.53764 28.9451 9.41208 28.9124 9.30058 28.8501C9.18909 28.7878 9.09535 28.698 9.02824 28.5894C8.96114 28.4807 8.9229 28.3567 8.91714 28.2291C8.91139 28.1015 8.93831 27.9746 8.99535 27.8603L9.99535 25.8603C10.0851 25.6839 10.241 25.5502 10.4289 25.4882C10.6169 25.4263 10.8217 25.4411 10.9988 25.5295C11.1758 25.6179 11.3108 25.7727 11.3742 25.9602C11.4376 26.1476 11.4244 26.3526 11.3374 26.5303L10.3374 28.5303C10.275 28.6551 10.1791 28.7601 10.0604 28.8334C9.94169 28.9067 9.80488 28.9455 9.66535 28.9453Z" fill="#3689DB"/>
</svg>
