<svg width="125" height="39" viewBox="0 0 125 39" fill="none" xmlns="http://www.w3.org/2000/svg">
<path d="M60.6934 15.7054H63.9552L64.2333 17.1087H64.327C65.2581 16.2187 66.4251 15.4229 68.0092 15.4229C70.5728 15.4229 71.6461 17.2971 71.6461 20.201V27.4122H67.6374V20.7143C67.6374 19.2168 67.2656 18.84 66.4736 18.84C65.7268 18.84 65.3098 19.1681 64.702 19.73V27.4089H60.6934V15.7022V15.7054Z" fill="white"/>
<path d="M73.3271 21.5588C73.3271 17.7648 76.0783 15.4229 78.9199 15.4229C82.3693 15.4229 83.9986 17.9532 83.9986 21.0878C83.9986 21.7894 83.9048 22.4943 83.8369 22.7737H77.1968C77.5686 24.1802 78.5934 24.6479 79.8994 24.6479C80.6914 24.6479 81.4382 24.414 82.2755 23.9463L83.5816 26.3338C82.324 27.2238 80.6462 27.6915 79.3401 27.6915C75.9392 27.6915 73.3271 25.4437 73.3271 21.5556V21.5588ZM80.5977 20.1523C80.5977 19.2623 80.2259 18.4665 79.0136 18.4665C78.1278 18.4665 77.3811 18.9829 77.1483 20.1523H80.5977Z" fill="white"/>
<path d="M85.3303 21.6759C85.3303 19.9738 85.8346 18.5706 86.8465 17.4629C87.8422 16.3553 89.0998 15.7998 90.6224 15.7998C92.145 15.7998 93.3185 16.3618 93.9554 17.4857H94.0492V16.5014C94.0492 16.2351 94.172 16.1019 94.4209 16.1019H97.1009C97.3498 16.1019 97.4727 16.2351 97.4727 16.5014V27.133C97.4727 28.8968 96.9296 30.2773 95.8401 31.2778C94.7539 32.275 93.2442 32.7752 91.3207 32.7752C89.6881 32.7752 88.3627 32.4082 87.3347 31.6741C86.3099 30.9399 85.7118 29.9427 85.5405 28.6759V28.5817C85.5405 28.3803 85.6633 28.2764 85.9122 28.2764H88.5922C88.7926 28.2764 88.9349 28.3868 89.0125 28.6044C89.2776 29.4327 90.0534 29.8453 91.3433 29.8453C93.1763 29.8453 94.0944 28.939 94.0944 27.1297V25.7005H93.978C93.325 26.8082 92.2065 27.3636 90.6224 27.3636C89.0383 27.3636 87.839 26.8374 86.8368 25.7817C85.8346 24.7293 85.3336 23.3585 85.3336 21.6727L85.3303 21.6759ZM88.9413 21.6986C88.9413 22.462 89.1741 23.0954 89.6396 23.5956C90.1052 24.0959 90.7258 24.346 91.5049 24.346C92.284 24.346 92.908 24.0991 93.38 23.6086C93.852 23.1181 94.0912 22.4815 94.0912 21.7019C94.0912 20.9223 93.8552 20.2824 93.38 19.7822C92.9048 19.2819 92.2808 19.0318 91.5049 19.0318C90.7291 19.0318 90.1052 19.2819 89.6396 19.7822C89.1741 20.2824 88.9413 20.9223 88.9413 21.7019V21.6986Z" fill="white"/>
<path d="M98.5977 21.5588C98.5977 17.7648 101.349 15.4229 104.19 15.4229C107.64 15.4229 109.269 17.9532 109.269 21.0878C109.269 21.7894 109.175 22.4943 109.107 22.7737H102.467C102.839 24.1802 103.867 24.6479 105.17 24.6479C105.962 24.6479 106.709 24.414 107.546 23.9463L108.852 26.3338C107.595 27.2238 105.917 27.6915 104.611 27.6915C101.21 27.6915 98.5977 25.4437 98.5977 21.5556V21.5588ZM105.868 20.1523C105.868 19.2623 105.496 18.4665 104.284 18.4665C103.398 18.4665 102.652 18.9829 102.419 20.1523H105.868Z" fill="white"/>
<path d="M110.814 23.2902V11.1157H114.823V23.4331C114.823 24.2289 115.195 24.4628 115.476 24.4628C115.615 24.4628 115.709 24.4628 115.896 24.4173L116.362 27.3668C115.942 27.5552 115.289 27.6948 114.406 27.6948C111.703 27.6948 110.818 25.9148 110.818 23.2934L110.814 23.2902Z" fill="white"/>
<path d="M117.526 12.2395C117.526 11.0701 118.457 10.2256 119.763 10.2256C121.069 10.2256 122 11.0701 122 12.2395C122 13.4089 121.069 14.2534 119.763 14.2534C118.457 14.2534 117.526 13.4089 117.526 12.2395ZM117.758 15.7054H121.767V27.4121H117.758V15.7054Z" fill="white"/>
<path d="M51.926 11.9116C47.733 11.9116 44.8882 14.7214 44.8882 19.7334C44.8882 24.7455 47.7298 27.6949 51.926 27.6949C56.1221 27.6949 58.9638 24.7455 58.9638 19.7334C58.9638 14.7214 56.1221 11.9116 51.926 11.9116ZM51.926 15.3775C52.8667 15.3775 53.6167 15.8063 54.1243 16.5989C52.2622 17.4369 50.5326 18.5511 48.9938 19.8991C48.9938 19.8439 48.9906 19.7887 48.9906 19.7302C48.9906 16.9659 50.1091 15.3743 51.926 15.3743V15.3775ZM51.926 24.229C51.1695 24.229 50.5391 23.9269 50.0542 23.378C51.4443 21.9293 53.0704 20.7371 54.8581 19.8504C54.8258 22.5432 53.7169 24.229 51.926 24.229Z" fill="white"/>
<path fill-rule="evenodd" clip-rule="evenodd" d="M19.7254 38.1909C29.994 38.086 38.2859 29.7292 38.2859 19.4358C38.2859 9.07708 29.8885 0.679688 19.5298 0.679688C9.17107 0.679688 0.773682 9.07708 0.773682 19.4358C0.773682 27.2226 5.51887 33.9011 12.2753 36.7374C12.2261 36.5943 12.178 36.4502 12.1297 36.3054C12.0217 35.9819 11.9127 35.6553 11.7879 35.3304C11.714 35.1062 11.6397 34.8826 11.5656 34.6593L11.5654 34.6587L11.5652 34.6581C10.7968 32.3442 10.0414 30.0696 9.80874 27.5948C9.51311 24.6087 11.6261 23.4924 14.2338 23.2141C17.0812 22.7826 19.9317 21.954 22.4181 20.472C24.1514 19.4026 25.9719 18.0675 26.5258 16.082C26.6512 15.5724 26.6348 15.0652 26.4921 14.576C25.9591 14.2679 25.311 14.1733 24.7178 14.331C21.0582 15.0439 19.5521 9.29372 22.3216 7.35199C24.584 5.58536 28.3463 6.98928 28.3245 9.99412L28.3322 10.1415V10.1415V10.1415V10.1415V10.1416V10.1416V10.1416C28.345 10.389 28.3566 10.6134 28.3779 10.7488C28.5731 10.7851 28.7894 10.8035 29.014 10.8225C29.6797 10.8789 30.4179 10.9415 30.8918 11.4981C32.9515 13.7268 34.7483 17.073 32.8109 19.8356C33.1586 20.1711 33.6443 20.4612 34.0871 20.7256L34.0871 20.7257L34.1126 20.7409L34.7381 21.0973L34.6696 21.7102C34.4362 23.2454 33.8948 25.9688 32.0245 26.2878C31.0287 26.4003 30.6366 25.5561 30.7455 24.715C30.7471 24.6353 30.7519 24.553 30.7567 24.4699C30.7804 24.0606 30.8053 23.6309 30.4561 23.3892C30.2182 23.2193 29.8428 23.1661 29.5151 23.1197L29.4323 23.1078C28.8442 23.0359 28.2747 22.495 28.1782 21.9478C27.9324 20.7065 28.449 19.5214 28.9717 18.4427L27.8577 19.4464C26.865 21.8446 25.1815 23.9865 23.0374 25.4592C21.4285 26.5973 19.4898 27.1539 17.604 27.4853L18.2357 27.7042L18.2326 27.7073C18.4452 27.9231 18.7848 28.1435 19.0923 28.343L19.0924 28.343L19.0927 28.3432L19.0929 28.3433L19.093 28.3434L19.0932 28.3435C19.2265 28.43 19.3537 28.5125 19.4618 28.5891C19.8881 28.8861 20.3114 29.2144 20.7128 29.6022C21.3912 30.2463 22.3403 31.4344 22.0851 32.5601C21.9272 33.5247 21.0049 34.1456 20.2446 34.4875C20.2287 34.629 20.2055 34.7682 20.1838 34.8927C20.1443 35.1093 20.0998 35.3352 20.0546 35.565C19.9433 36.1311 19.8274 36.72 19.7699 37.2471C19.7368 37.5374 19.7319 37.8156 19.7271 38.0947C19.7265 38.1268 19.726 38.1588 19.7254 38.1909ZM32.2397 24.9991C32.2423 25.0143 32.2453 25.0291 32.2486 25.0433C32.2548 25.0683 32.2672 25.0746 32.2423 25.0058L32.2397 24.9991ZM29.5727 12.7276L29.563 12.7175L29.5381 12.6925C29.5454 12.7035 29.5591 12.7156 29.5704 12.7256L29.5704 12.7256L29.5727 12.7276ZM28.2561 10.7166C28.2515 10.7139 28.249 10.7125 28.2498 10.7133C28.2512 10.7142 28.2533 10.7154 28.2561 10.7166ZM32.5232 20.2087C32.4886 20.2497 32.453 20.2905 32.4166 20.3313C32.4443 20.31 32.4847 20.2682 32.5232 20.2087ZM20.2583 34.3388C20.2822 34.249 20.2884 34.1506 20.2616 34.0641C20.2667 34.1524 20.2647 34.2452 20.2583 34.3388ZM8.55106 17.5848C8.31119 16.3065 8.42966 14.9277 9.23927 13.8651C10.2942 12.4393 12.2329 11.717 13.9538 12.2235C16.6611 13.0771 18.7803 15.96 18.1579 18.7929C17.6974 20.9535 15.4599 23.0641 13.1945 22.3449C12.6966 22.1948 12.2671 21.9947 11.8439 21.6977L10.8543 21.1817C10.8979 22.0979 9.98301 22.8108 9.1179 22.9296C7.48105 23.2141 6.22385 21.7164 6.24563 20.1374C6.16329 18.7517 7.25952 17.6139 8.55106 17.5848Z" fill="white"/>
</svg>
