<svg width="52" height="52" viewBox="0 0 52 52" fill="none" xmlns="http://www.w3.org/2000/svg">
<path d="M5.13103 5.33249C1.36986 9.23847 2.13964 13.3877 2.13964 25.9929C2.13964 36.4607 0.312908 46.9544 9.87336 49.4248C12.8588 50.1924 39.3105 50.1924 42.292 49.4208C46.2725 48.3939 49.5112 45.1659 49.9539 39.5372C50.0157 38.7516 50.0157 13.2481 49.9519 12.4466C49.4812 6.45105 45.7899 2.99569 40.9259 2.29584C39.8111 2.13434 39.5877 2.08649 33.8682 2.07652C13.5807 2.08649 9.13349 1.18327 5.13103 5.33249Z" fill="url(#paint0_linear_291_10690)"/>
<path d="M26.0668 8.33541C18.8256 8.33541 11.9494 7.69139 9.323 14.4306C8.23813 17.2141 8.39568 20.829 8.39568 26.005C8.39568 30.547 8.2501 34.8159 9.323 37.5774C11.9435 44.3206 18.8755 43.6746 26.0628 43.6746C32.9968 43.6746 40.1462 44.3964 42.8045 37.5774C43.8914 34.7661 43.7319 31.205 43.7319 26.005C43.7319 19.1023 44.1128 14.646 40.7644 11.3003C37.3742 7.91072 32.7894 8.33541 26.0588 8.33541H26.0668ZM24.4833 11.5196C39.5878 11.4957 41.5103 9.81685 40.4493 33.1391C40.0724 41.3877 33.7905 40.4825 26.0688 40.4825C11.9893 40.4825 11.5845 40.0797 11.5845 25.997C11.5845 11.7509 12.7013 11.5276 24.4833 11.5156V11.5196ZM35.4996 14.4526C34.9374 14.4526 34.3982 14.6759 34.0006 15.0734C33.603 15.4708 33.3797 16.0099 33.3797 16.5721C33.3797 17.1342 33.603 17.6733 34.0006 18.0708C34.3982 18.4682 34.9374 18.6915 35.4996 18.6915C36.0618 18.6915 36.601 18.4682 36.9986 18.0708C37.3961 17.6733 37.6195 17.1342 37.6195 16.5721C37.6195 16.0099 37.3961 15.4708 36.9986 15.0734C36.601 14.6759 36.0618 14.4526 35.4996 14.4526ZM26.0668 16.931C24.875 16.9311 23.695 17.1659 22.594 17.622C21.4931 18.0781 20.4928 18.7465 19.6502 19.5891C17.9485 21.2908 16.9926 23.5987 16.9929 26.005C16.9932 28.4113 17.9495 30.719 19.6516 32.4204C21.3536 34.1217 23.662 35.0774 26.0688 35.0771C28.4756 35.0768 30.7837 34.1207 32.4854 32.4189C34.187 30.7172 35.1429 28.4094 35.1426 26.003C35.1423 23.5967 34.186 21.289 32.4839 19.5877C30.7819 17.8863 28.4736 16.9307 26.0668 16.931ZM26.0668 20.1151C33.8543 20.1151 33.8643 31.8949 26.0668 31.8949C18.2812 31.8949 18.2692 20.1151 26.0668 20.1151Z" fill="white"/>
<defs>
<linearGradient id="paint0_linear_291_10690" x1="5.2228" y1="46.8728" x2="49.6981" y2="8.37242" gradientUnits="userSpaceOnUse">
<stop stop-color="#FFDD55"/>
<stop offset="0.5" stop-color="#FF543E"/>
<stop offset="1" stop-color="#C837AB"/>
</linearGradient>
</defs>
</svg>
