<svg width="20" height="20" viewBox="0 0 20 20" fill="none" xmlns="http://www.w3.org/2000/svg">
<path d="M3.05485 9.25979C2.70968 9.26076 2.37183 9.35944 2.0804 9.5444C1.78896 9.72937 1.55586 9.99307 1.40804 10.305C1.26022 10.6169 1.20374 10.9643 1.24512 11.307C1.2865 11.6497 1.42406 11.9736 1.64189 12.2414L6.28535 17.9296C6.45091 18.1352 6.66314 18.2983 6.90439 18.4054C7.14565 18.5125 7.40898 18.5605 7.6725 18.5454C8.23612 18.5151 8.74496 18.2136 9.06939 17.7179L18.715 2.18356C18.7166 2.18097 18.7183 2.1784 18.72 2.17587C18.8105 2.03691 18.7811 1.76152 18.5943 1.58852C18.543 1.54102 18.4825 1.50452 18.4165 1.48127C18.3506 1.45803 18.2806 1.44854 18.2108 1.45338C18.141 1.45822 18.073 1.47729 18.0109 1.50941C17.9488 1.54154 17.8939 1.58604 17.8496 1.64018C17.8462 1.64444 17.8426 1.64863 17.8389 1.65276L8.11116 12.6437C8.07414 12.6855 8.02918 12.7196 7.9789 12.7439C7.92861 12.7682 7.874 12.7822 7.81823 12.7852C7.76246 12.7883 7.70664 12.7802 7.65403 12.7614C7.60141 12.7427 7.55304 12.7137 7.51173 12.6761L4.28327 9.73818C3.94797 9.43081 3.50972 9.26014 3.05485 9.25979Z" fill="#469103"/>
</svg>
