<svg width="40" height="40" viewBox="0 0 40 40" fill="none" xmlns="http://www.w3.org/2000/svg">
<g clip-path="url(#clip0_314_13310)">
<path d="M1.17224 27.4478C3.10427 27.4478 4.56731 26.9113 5.65067 26.1228L6.6563 21.0949C7.02005 19.2776 7.85013 17.6467 9.00583 16.3177H8.06224C4.51185 16.3177 1.43841 18.8458 0.754189 22.3287C0.370205 24.2801 0.0223142 26.05 0.0223142 26.05C-0.119873 26.7742 0.435595 27.4477 1.17224 27.4477V27.4478ZM6.95927 31.5314C8.18635 32.3569 9.4929 33.0576 10.8594 33.623C11.6116 33.9341 12.3802 34.2038 13.1617 34.4312L13.2935 33.8952C13.9527 31.2101 16.4835 28.4655 20.2729 28.5577C20.276 28.558 20.279 28.558 20.282 28.558C23.2722 28.6341 25.8729 30.7108 26.6078 33.6105L26.8171 34.4373C27.6061 34.2088 28.3819 33.937 29.141 33.623C30.6974 32.9782 32.1595 32.168 33.5157 31.2024L30.5438 13.3727L31.0962 13.9248C32.5962 15.4251 35.0214 15.4223 36.5189 13.9248C38.014 12.4298 38.014 9.99726 36.5189 8.50187L33.7241 5.70711V1.17187C33.7241 0.524609 33.1995 0 32.5522 0H31.2125C25.0098 0 20.0004 5.02133 20.0004 11.2122V15.0625H16.8738C13.0378 15.0625 9.70739 17.7926 8.9545 21.5545L6.95927 31.5314Z" fill="#3689DB"/>
<path d="M39.6573 30.4681C39.1995 30.0106 38.4576 30.0106 37.9999 30.4681C35.7093 32.7587 33.0307 34.5485 30.0382 35.7882C27.0458 37.0278 23.886 37.6562 20.6468 37.6562H19.3539C16.1147 37.6562 12.9552 37.0278 9.9627 35.7882C6.97043 34.5486 4.2916 32.7587 2.00121 30.4681C1.5434 30.0106 0.801602 30.0106 0.343789 30.4681C-0.113945 30.9259 -0.113945 31.6678 0.343789 32.1255C2.85301 34.6349 5.78754 36.5957 9.06574 37.9538C12.344 39.3114 15.8057 39.9999 19.3539 39.9999H20.6469C24.1955 39.9999 27.6568 39.3114 30.935 37.9535C34.2132 36.5956 37.1478 34.6347 39.6572 32.1255C40.1147 31.6677 40.1148 30.9259 39.6573 30.4681Z" fill="#3689DB"/>
</g>
<defs>
<clipPath id="clip0_314_13310">
<rect width="40" height="40" fill="white"/>
</clipPath>
</defs>
</svg>
