<svg width="52" height="52" viewBox="0 0 52 52" fill="none" xmlns="http://www.w3.org/2000/svg">
<path d="M43.4545 2H8.54545C4.9305 2 2 4.9305 2 8.54545V43.4545C2 47.0695 4.9305 50 8.54545 50H43.4545C47.0695 50 50 47.0695 50 43.4545V8.54545C50 4.9305 47.0695 2 43.4545 2Z" fill="#29A71A"/>
<path d="M36.5816 15.4183C34.0846 12.8964 30.7686 11.3498 27.2317 11.0574C23.6948 10.7651 20.1699 11.7463 17.2927 13.824C14.4155 15.9018 12.3756 18.9393 11.5407 22.3886C10.7059 25.838 11.1311 29.4721 12.7398 32.6356L11.1607 40.3019C11.1443 40.3782 11.1438 40.4571 11.1593 40.5336C11.1748 40.6101 11.2059 40.6825 11.2507 40.7465C11.3163 40.8435 11.4099 40.9182 11.5191 40.9606C11.6282 41.003 11.7477 41.011 11.8616 40.9837L19.3752 39.2028C22.5298 40.7708 26.1383 41.1687 29.5586 40.3258C32.979 39.4828 35.9894 37.4538 38.0542 34.5996C40.119 31.7455 41.1042 28.2514 40.8345 24.739C40.5649 21.2266 39.0578 17.9238 36.5816 15.4183ZM34.2389 34.1165C32.5112 35.8393 30.2865 36.9765 27.8782 37.368C25.47 37.7594 22.9996 37.3852 20.8152 36.2983L19.7679 35.7801L15.1616 36.871L15.1752 36.8137L16.1298 32.1774L15.617 31.1656C14.5009 28.9736 14.1072 26.4846 14.4923 24.0551C14.8773 21.6257 16.0214 19.3804 17.7607 17.641C19.9461 15.4563 22.9097 14.229 25.9998 14.229C29.0899 14.229 32.0535 15.4563 34.2389 17.641C34.2575 17.6624 34.2775 17.6824 34.2989 17.701C36.4571 19.8913 37.662 22.8461 37.6508 25.9211C37.6395 28.9961 36.4131 31.942 34.2389 34.1165Z" fill="white"/>
<path d="M33.8296 30.7154C33.265 31.6045 32.3732 32.6927 31.2523 32.9627C29.2887 33.4372 26.275 32.979 22.525 29.4827L22.4787 29.4418C19.1814 26.3845 18.325 23.84 18.5323 21.8218C18.6468 20.6763 19.6014 19.64 20.4059 18.9636C20.5331 18.855 20.684 18.7777 20.8464 18.7379C21.0088 18.6981 21.1783 18.6968 21.3413 18.7341C21.5043 18.7715 21.6562 18.8465 21.7851 18.9531C21.9139 19.0597 22.016 19.195 22.0832 19.3481L23.2968 22.0754C23.3757 22.2522 23.4049 22.4472 23.3814 22.6394C23.3579 22.8316 23.2824 23.0137 23.1632 23.1663L22.5496 23.9627C22.4179 24.1271 22.3385 24.3272 22.3214 24.5372C22.3044 24.7471 22.3506 24.9574 22.4541 25.1409C22.7978 25.7436 23.6214 26.63 24.535 27.4509C25.5605 28.3781 26.6978 29.2263 27.4178 29.5154C27.6104 29.5941 27.8222 29.6133 28.0259 29.5705C28.2296 29.5278 28.4158 29.425 28.5605 29.2754L29.2723 28.5581C29.4097 28.4227 29.5805 28.3261 29.7673 28.2782C29.9542 28.2303 30.1504 28.2328 30.3359 28.2854L33.2187 29.1036C33.3777 29.1524 33.5234 29.2369 33.6448 29.3506C33.7661 29.4644 33.8599 29.6044 33.9188 29.7599C33.9778 29.9154 34.0004 30.0824 33.9849 30.248C33.9694 30.4136 33.9163 30.5735 33.8296 30.7154Z" fill="white"/>
</svg>
