<svg width="40" height="40" viewBox="0 0 40 40" fill="none" xmlns="http://www.w3.org/2000/svg">
<path d="M0 22.0314C0 23.9499 1.44102 25.5309 3.29961 25.7535C2.75422 23.3021 2.75422 20.7607 3.29961 18.3093C1.44102 18.5319 0 20.1129 0 22.0314ZM36.7004 18.3093C37.2458 20.7607 37.2458 23.3021 36.7004 25.7535C38.5589 25.5309 40 23.9499 40 22.0314C40 20.1129 38.559 18.5319 36.7004 18.3093ZM20 12.2658C21.8455 12.2658 23.4039 11.272 24.3881 9.46757C25.1354 8.09765 25.5469 6.28914 25.5469 4.37515C25.5469 3.57992 24.7663 3.01304 24.0066 3.26265C23.9895 3.26828 22.2603 3.82828 20 3.82828C16.8512 3.82828 15.4309 5.97507 15.1198 7.11031C15.0746 7.27523 15.164 7.90062 15.1927 8.06914C15.4662 9.67718 16.7455 12.2658 20 12.2658Z" fill="#3689DB"/>
<path d="M27.1095 9.09406C25.8017 12.7506 23.0398 14.6098 20 14.6098C16.0663 14.6098 13.7085 11.8946 13.0011 9.0332C8.38047 11.5311 5.23438 16.4208 5.23438 22.0317C5.23438 30.1735 11.8582 36.7973 20 36.7973C28.1418 36.7973 34.7656 30.1735 34.7656 22.0317C34.7656 16.4658 31.6695 11.6098 27.1095 9.09406ZM13.2878 21.2336C12.693 20.9784 12.4179 20.2893 12.6731 19.6945C13.1841 18.5041 14.3427 17.7348 15.625 17.7348C16.9073 17.7348 18.0659 18.5041 18.5769 19.6945C18.8321 20.2893 18.557 20.9784 17.9622 21.2336C17.3686 21.4884 16.6789 21.2148 16.4231 20.6189C16.1147 19.9002 15.1355 19.8999 14.8269 20.6189C14.5716 21.2136 13.8827 21.4888 13.2878 21.2336ZM25.0119 26.2846C24.0972 28.2097 22.1299 29.4536 20 29.4536C17.8701 29.4536 15.9028 28.2097 14.9881 26.2846C14.7104 25.7 14.9591 25.0009 15.5437 24.7232C16.128 24.4454 16.8273 24.6942 17.105 25.2787C17.6335 26.391 18.7698 27.1098 19.9999 27.1098C21.23 27.1098 22.3663 26.391 22.8948 25.2787C23.1726 24.6941 23.8717 24.4454 24.4562 24.7232C25.0409 25.0009 25.2896 25.7 25.0119 26.2846ZM26.7122 21.2336C26.1186 21.4884 25.4289 21.2148 25.1731 20.6189C24.8647 19.9002 23.8855 19.8999 23.5769 20.6189C23.3216 21.2136 22.6327 21.4888 22.0378 21.2336C21.443 20.9784 21.1679 20.2893 21.4231 19.6945C21.9341 18.5041 23.0927 17.7348 24.375 17.7348C25.6573 17.7348 26.8159 18.5041 27.3269 19.6945C27.5821 20.2893 27.307 20.9784 26.7122 21.2336Z" fill="#3689DB"/>
</svg>
