<svg width="40" height="40" viewBox="0 0 40 40" fill="none" xmlns="http://www.w3.org/2000/svg">
<path d="M26.7442 20.6279L24.8159 17.5832L20.8605 24.4894C20.7554 24.6729 20.6026 24.8245 20.4183 24.9282C20.234 25.0319 20.025 25.0838 19.8136 25.0784C19.6022 25.073 19.3962 25.0105 19.2175 24.8975C19.0387 24.7845 18.8939 24.6252 18.7983 24.4366L14.0056 14.9775L11.7053 20.4545C11.6159 20.6673 11.4657 20.849 11.2735 20.9768C11.0813 21.1045 10.8556 21.1727 10.6248 21.1727H4.36279C4.47473 21.2957 4.5895 21.416 4.70701 21.5336L19.1712 35.9979C19.4001 36.2267 19.7 36.3411 19.9998 36.3411C20.2997 36.3411 20.5997 36.2268 20.8284 35.9979L35.2926 21.5336C35.4101 21.416 35.5249 21.2957 35.6369 21.1727H27.7342C27.5366 21.1727 27.3423 21.1227 27.1692 21.0275C26.9961 20.9322 26.8499 20.7948 26.7442 20.6279Z" fill="#3689DB"/>
<path d="M12.8258 11.7341C12.9124 11.5279 13.0562 11.3508 13.2403 11.2237C13.4243 11.0966 13.6409 11.0248 13.8644 11.0168C14.088 11.0088 14.3091 11.065 14.5017 11.1787C14.6944 11.2923 14.8505 11.4588 14.9516 11.6583L19.9069 21.4384L23.7487 14.7305C23.8491 14.5553 23.9931 14.409 24.1667 14.3058C24.3403 14.2025 24.5376 14.1459 24.7395 14.1415C24.9415 14.137 25.1411 14.1847 25.3191 14.2801C25.4972 14.3755 25.6475 14.5153 25.7556 14.6859L28.3793 18.8286H37.2517C37.9762 17.3887 38.3594 15.7888 38.3594 14.13C38.3594 11.3334 37.2703 8.70422 35.2929 6.72672C33.3154 4.74922 30.6862 3.66016 27.8896 3.66016C25.093 3.66016 22.4638 4.74922 20.4863 6.72672L20 7.21305L19.5137 6.7268C17.5362 4.7493 14.907 3.66023 12.1104 3.66023C9.31375 3.66023 6.68461 4.7493 4.70711 6.72672C2.72969 8.70422 1.64062 11.3334 1.64062 14.13C1.64062 15.7888 2.02383 17.3887 2.74828 18.8286H9.84617L12.8258 11.7341ZM1.17188 18.8286C0.524687 18.8286 0 19.3533 0 20.0005C0 20.6477 0.524687 21.1723 1.17188 21.1723H4.36297C3.71344 20.4594 3.17227 19.6715 2.74828 18.8286H1.17188ZM38.8281 18.8286H37.2517C36.8277 19.6715 36.2866 20.4594 35.637 21.1723H38.8281C39.4753 21.1723 40 20.6477 40 20.0005C40 19.3533 39.4753 18.8286 38.8281 18.8286Z" fill="#3689DB"/>
</svg>
