<svg width="32" height="26" viewBox="0 0 32 26" fill="none" xmlns="http://www.w3.org/2000/svg">
<path fill-rule="evenodd" clip-rule="evenodd" d="M18.2857 23.8333C18.2857 23.2587 18.0449 22.7076 17.6162 22.3013C17.1876 21.8949 16.6062 21.6667 16 21.6667H2.28571C1.6795 21.6667 1.09812 21.8949 0.669468 22.3013C0.240812 22.7076 0 23.2587 0 23.8333C0 24.408 0.240812 24.9591 0.669468 25.3654C1.09812 25.7717 1.6795 26 2.28571 26H16C16.6062 26 17.1876 25.7717 17.6162 25.3654C18.0449 24.9591 18.2857 24.408 18.2857 23.8333ZM32 2.16667C32 1.59203 31.7592 1.04093 31.3305 0.634602C30.9019 0.228274 30.3205 0 29.7143 0H2.28571C1.6795 0 1.09812 0.228274 0.669468 0.634602C0.240812 1.04093 0 1.59203 0 2.16667C0 2.7413 0.240812 3.2924 0.669468 3.69873C1.09812 4.10506 1.6795 4.33333 2.28571 4.33333H29.7143C30.3205 4.33333 30.9019 4.10506 31.3305 3.69873C31.7592 3.2924 32 2.7413 32 2.16667ZM32 13C32 12.4254 31.7592 11.8743 31.3305 11.4679C30.9019 11.0616 30.3205 10.8333 29.7143 10.8333H2.28571C1.6795 10.8333 1.09812 11.0616 0.669468 11.4679C0.240812 11.8743 0 12.4254 0 13C0 13.5746 0.240812 14.1257 0.669468 14.5321C1.09812 14.9384 1.6795 15.1667 2.28571 15.1667H29.7143C30.3205 15.1667 30.9019 14.9384 31.3305 14.5321C31.7592 14.1257 32 13.5746 32 13Z" fill="#264C5A"/>
</svg>
