<svg width="27" height="27" viewBox="0 0 27 27" fill="none" xmlns="http://www.w3.org/2000/svg">
<path d="M13.4998 10.8772L22.6334 1.74381C23.3584 1.01874 24.5312 1.01874 25.2563 1.74375C25.9816 2.46874 25.9816 3.64165 25.2563 4.36672C25.2563 4.36673 25.2563 4.36675 25.2563 4.36676L16.123 13.5002L25.2563 22.6336C25.2563 22.6336 25.2563 22.6336 25.2563 22.6336C25.9816 23.3587 25.9816 24.5315 25.2563 25.2566L13.4998 10.8772ZM13.4998 10.8772L4.36664 1.7438L4.36659 1.74375C3.64129 1.0188 2.46886 1.01871 1.74376 1.74375L13.4998 10.8772ZM13.4998 16.1231L22.6331 25.2563L13.4998 16.1231ZM13.4998 16.1231L4.36671 25.2566C4.00516 25.6181 3.52993 25.7999 3.05558 25.8C3.05547 25.8 3.05536 25.8 3.05525 25.8V25.5C2.85103 25.5002 2.64878 25.4601 2.46012 25.3819L13.4998 16.1231ZM10.8768 13.5002L1.74376 4.36677C1.74374 4.36676 1.74372 4.36674 1.74371 4.36672C1.01836 3.64166 1.01836 2.46886 1.74371 1.7438L10.8768 13.5002ZM10.8768 13.5002L1.74383 22.6336C1.01842 23.3587 1.0184 24.5316 1.74385 25.2566L10.8768 13.5002ZM23.9452 25.8C24.4195 25.7999 24.8947 25.6181 25.2563 25.2566L23.3498 25.3819C23.5384 25.4601 23.7407 25.5002 23.9449 25.5V25.8C23.945 25.8 23.9451 25.8 23.9452 25.8Z" fill="#264C5A" stroke="#264C5A" stroke-width="0.6"/>
</svg>
